<?xml version="1.0" encoding="UTF-8"?>
<svg xmlns="http://www.w3.org/2000/svg" width="960" height="520" viewBox="0 0 960 520">
  <rect x="0" y="0" width="100%" height="100%" fill="#ffffff"/>
  <text x="70" y="24" font-family="Arial" font-size="18" fill="#1f2937">H2O TDDFT absorption cross section :: optical_spectrum</text>
  <line x1="70" y1="458" x2="940" y2="458" stroke="#5f6b7a" stroke-width="1.5"/>
  <line x1="70" y1="42" x2="70" y2="458" stroke="#5f6b7a" stroke-width="1.5"/>
  <polyline fill="none" stroke="#0b6cff" stroke-width="2" points="70.00,458.00 70.44,458.00 70.87,458.00 71.31,458.00 71.74,457.99 72.18,457.99 72.61,457.99 73.05,457.98 73.48,457.98 73.92,457.98 74.35,457.97 74.79,457.96 75.22,457.96 75.66,457.95 76.09,457.94 76.53,457.94 76.96,457.93 77.40,457.92 77.83,457.91 78.27,457.90 78.70,457.89 79.14,457.88 79.57,457.87 80.01,457.86 80.45,457.85 80.88,457.83 81.32,457.82 81.75,457.81 82.19,457.79 82.62,457.78 83.06,457.76 83.49,457.75 83.93,457.73 84.36,457.71 84.80,457.70 85.23,457.68 85.67,457.66 86.10,457.64 86.54,457.62 86.97,457.60 87.41,457.58 87.84,457.56 88.28,457.54 88.71,457.52 89.15,457.50 89.58,457.48 90.02,457.45 90.46,457.43 90.89,457.41 91.33,457.38 91.76,457.36 92.20,457.33 92.63,457.30 93.07,457.28 93.50,457.25 93.94,457.22 94.37,457.20 94.81,457.17 95.24,457.14 95.68,457.11 96.11,457.08 96.55,457.05 96.98,457.02 97.42,456.99 97.85,456.95 98.29,456.92 98.72,456.89 99.16,456.85 99.59,456.82 100.03,456.79 100.47,456.75 100.90,456.72 101.34,456.68 101.77,456.64 102.21,456.61 102.64,456.57 103.08,456.53 103.51,456.49 103.95,456.45 104.38,456.42 104.82,456.38 105.25,456.34 105.69,456.29 106.12,456.25 106.56,456.21 106.99,456.17 107.43,456.13 107.86,456.08 108.30,456.04 108.73,456.00 109.17,455.95 109.60,455.91 110.04,455.86 110.48,455.81 110.91,455.77 111.35,455.72 111.78,455.67 112.22,455.62 112.65,455.57 113.09,455.53 113.52,455.48 113.96,455.43 114.39,455.38 114.83,455.32 115.26,455.27 115.70,455.22 116.13,455.17 116.57,455.11 117.00,455.06 117.44,455.01 117.87,454.95 118.31,454.90 118.74,454.84 119.18,454.79 119.61,454.73 120.05,454.67 120.49,454.61 120.92,454.56 121.36,454.50 121.79,454.44 122.23,454.38 122.66,454.32 123.10,454.26 123.53,454.20 123.97,454.14 124.40,454.07 124.84,454.01 125.27,453.95 125.71,453.89 126.14,453.82 126.58,453.76 127.01,453.69 127.45,453.63 127.88,453.56 128.32,453.50 128.75,453.43 129.19,453.36 129.62,453.29 130.06,453.23 130.50,453.16 130.93,453.09 131.37,453.02 131.80,452.95 132.24,452.88 132.67,452.81 133.11,452.73 133.54,452.66 133.98,452.59 134.41,452.52 134.85,452.44 135.28,452.37 135.72,452.29 136.15,452.22 136.59,452.14 137.02,452.07 137.46,451.99 137.89,451.91 138.33,451.84 138.76,451.76 139.20,451.68 139.63,451.60 140.07,451.52 140.51,451.44 140.94,451.36 141.38,451.28 141.81,451.20 142.25,451.12 142.68,451.03 143.12,450.95 143.55,450.87 143.99,450.79 144.42,450.70 144.86,450.62 145.29,450.53 145.73,450.45 146.16,450.36 146.60,450.27 147.03,450.19 147.47,450.10 147.90,450.01 148.34,449.92 148.77,449.83 149.21,449.74 149.64,449.65 150.08,449.56 150.52,449.47 150.95,449.38 151.39,449.29 151.82,449.19 152.26,449.10 152.69,449.01 153.13,448.91 153.56,448.82 154.00,448.73 154.43,448.63 154.87,448.53 155.30,448.44 155.74,448.34 156.17,448.24 156.61,448.15 157.04,448.05 157.48,447.95 157.91,447.85 158.35,447.75 158.78,447.65 159.22,447.55 159.65,447.45 160.09,447.35 160.53,447.25 160.96,447.14 161.40,447.04 161.83,446.94 162.27,446.83 162.70,446.73 163.14,446.62 163.57,446.52 164.01,446.41 164.44,446.31 164.88,446.20 165.31,446.09 165.75,445.98 166.18,445.88 166.62,445.77 167.05,445.66 167.49,445.55 167.92,445.44 168.36,445.33 168.79,445.22 169.23,445.11 169.66,444.99 170.10,444.88 170.54,444.77 170.97,444.66 171.41,444.54 171.84,444.43 172.28,444.31 172.71,444.20 173.15,444.08 173.58,443.97 174.02,443.85 174.45,443.73 174.89,443.61 175.32,443.50 175.76,443.38 176.19,443.26 176.63,443.14 177.06,443.02 177.50,442.90 177.93,442.78 178.37,442.66 178.80,442.54 179.24,442.41 179.67,442.29 180.11,442.17 180.55,442.04 180.98,441.92 181.42,441.79 181.85,441.67 182.29,441.54 182.72,441.42 183.16,441.29 183.59,441.16 184.03,441.04 184.46,440.91 184.90,440.78 185.33,440.65 185.77,440.52 186.20,440.39 186.64,440.26 187.07,440.13 187.51,440.00 187.94,439.87 188.38,439.74 188.81,439.61 189.25,439.47 189.68,439.34 190.12,439.21 190.56,439.07 190.99,438.94 191.43,438.80 191.86,438.67 192.30,438.53 192.73,438.39 193.17,438.26 193.60,438.12 194.04,437.98 194.47,437.84 194.91,437.70 195.34,437.56 195.78,437.42 196.21,437.28 196.65,437.14 197.08,437.00 197.52,436.86 197.95,436.72 198.39,436.57 198.82,436.43 199.26,436.29 199.69,436.14 200.13,436.00 200.57,435.85 201.00,435.71 201.44,435.56 201.87,435.42 202.31,435.27 202.74,435.12 203.18,434.98 203.61,434.83 204.05,434.68 204.48,434.53 204.92,434.38 205.35,434.23 205.79,434.08 206.22,433.93 206.66,433.78 207.09,433.63 207.53,433.48 207.96,433.32 208.40,433.17 208.83,433.02 209.27,432.86 209.70,432.71 210.14,432.55 210.58,432.40 211.01,432.24 211.45,432.09 211.88,431.93 212.32,431.77 212.75,431.62 213.19,431.46 213.62,431.30 214.06,431.14 214.49,430.98 214.93,430.82 215.36,430.66 215.80,430.50 216.23,430.34 216.67,430.18 217.10,430.02 217.54,429.85 217.97,429.69 218.41,429.53 218.84,429.37 219.28,429.20 219.71,429.04 220.15,428.87 220.59,428.71 221.02,428.54 221.46,428.37 221.89,428.21 222.33,428.04 222.76,427.87 223.20,427.70 223.63,427.54 224.07,427.37 224.50,427.20 224.94,427.03 225.37,426.86 225.81,426.69 226.24,426.52 226.68,426.34 227.11,426.17 227.55,426.00 227.98,425.83 228.42,425.65 228.85,425.48 229.29,425.31 229.72,425.13 230.16,424.96 230.60,424.78 231.03,424.60 231.47,424.43 231.90,424.25 232.34,424.07 232.77,423.90 233.21,423.72 233.64,423.54 234.08,423.36 234.51,423.18 234.95,423.00 235.38,422.82 235.82,422.64 236.25,422.46 236.69,422.28 237.12,422.10 237.56,421.91 237.99,421.73 238.43,421.55 238.86,421.36 239.30,421.18 239.73,421.00 240.17,420.81 240.61,420.63 241.04,420.44 241.48,420.25 241.91,420.07 242.35,419.88 242.78,419.69 243.22,419.51 243.65,419.32 244.09,419.13 244.52,418.94 244.96,418.75 245.39,418.56 245.83,418.37 246.26,418.18 246.70,417.99 247.13,417.80 247.57,417.60 248.00,417.41 248.44,417.22 248.87,417.02 249.31,416.83 249.74,416.64 250.18,416.44 250.62,416.25 251.05,416.05 251.49,415.86 251.92,415.66 252.36,415.46 252.79,415.27 253.23,415.07 253.66,414.87 254.10,414.67 254.53,414.47 254.97,414.27 255.40,414.08 255.84,413.88 256.27,413.67 256.71,413.47 257.14,413.27 257.58,413.07 258.01,412.87 258.45,412.67 258.88,412.46 259.32,412.26 259.75,412.06 260.19,411.85 260.63,411.65 261.06,411.44 261.50,411.24 261.93,411.03 262.37,410.83 262.80,410.62 263.24,410.41 263.67,410.21 264.11,410.00 264.54,409.79 264.98,409.58 265.41,409.37 265.85,409.16 266.28,408.95 266.72,408.74 267.15,408.53 267.59,408.32 268.02,408.11 268.46,407.90 268.89,407.69 269.33,407.48 269.76,407.26 270.20,407.05 270.64,406.84 271.07,406.62 271.51,406.41 271.94,406.19 272.38,405.98 272.81,405.76 273.25,405.55 273.68,405.33 274.12,405.11 274.55,404.90 274.99,404.68 275.42,404.46 275.86,404.24 276.29,404.02 276.73,403.80 277.16,403.58 277.60,403.36 278.03,403.14 278.47,402.92 278.90,402.70 279.34,402.48 279.77,402.26 280.21,402.04 280.65,401.81 281.08,401.59 281.52,401.37 281.95,401.14 282.39,400.92 282.82,400.69 283.26,400.47 283.69,400.24 284.13,400.02 284.56,399.79 285.00,399.57 285.43,399.34 285.87,399.11 286.30,398.88 286.74,398.66 287.17,398.43 287.61,398.20 288.04,397.97 288.48,397.74 288.91,397.51 289.35,397.28 289.78,397.05 290.22,396.82 290.66,396.59 291.09,396.36 291.53,396.12 291.96,395.89 292.40,395.66 292.83,395.42 293.27,395.19 293.70,394.96 294.14,394.72 294.57,394.49 295.01,394.25 295.44,394.02 295.88,393.78 296.31,393.54 296.75,393.31 297.18,393.07 297.62,392.83 298.05,392.60 298.49,392.36 298.92,392.12 299.36,391.88 299.79,391.64 300.23,391.40 300.67,391.16 301.10,390.92 301.54,390.68 301.97,390.44 302.41,390.20 302.84,389.96 303.28,389.72 303.71,389.47 304.15,389.23 304.58,388.99 305.02,388.74 305.45,388.50 305.89,388.26 306.32,388.01 306.76,387.77 307.19,387.52 307.63,387.28 308.06,387.03 308.50,386.78 308.93,386.54 309.37,386.29 309.80,386.04 310.24,385.79 310.68,385.55 311.11,385.30 311.55,385.05 311.98,384.80 312.42,384.55 312.85,384.30 313.29,384.05 313.72,383.80 314.16,383.55 314.59,383.30 315.03,383.05 315.46,382.79 315.90,382.54 316.33,382.29 316.77,382.04 317.20,381.78 317.64,381.53 318.07,381.28 318.51,381.02 318.94,380.77 319.38,380.51 319.81,380.26 320.25,380.00 320.69,379.74 321.12,379.49 321.56,379.23 321.99,378.97 322.43,378.72 322.86,378.46 323.30,378.20 323.73,377.94 324.17,377.68 324.60,377.43 325.04,377.17 325.47,376.91 325.91,376.65 326.34,376.39 326.78,376.12 327.21,375.86 327.65,375.60 328.08,375.34 328.52,375.08 328.95,374.82 329.39,374.55 329.82,374.29 330.26,374.03 330.70,373.76 331.13,373.50 331.57,373.24 332.00,372.97 332.44,372.71 332.87,372.44 333.31,372.18 333.74,371.91 334.18,371.64 334.61,371.38 335.05,371.11 335.48,370.84 335.92,370.58 336.35,370.31 336.79,370.04 337.22,369.77 337.66,369.50 338.09,369.23 338.53,368.96 338.96,368.69 339.40,368.42 339.83,368.15 340.27,367.88 340.71,367.61 341.14,367.34 341.58,367.07 342.01,366.80 342.45,366.52 342.88,366.25 343.32,365.98 343.75,365.71 344.19,365.43 344.62,365.16 345.06,364.89 345.49,364.61 345.93,364.34 346.36,364.06 346.80,363.79 347.23,363.51 347.67,363.23 348.10,362.96 348.54,362.68 348.97,362.41 349.41,362.13 349.84,361.85 350.28,361.57 350.72,361.30 351.15,361.02 351.59,360.74 352.02,360.46 352.46,360.18 352.89,359.90 353.33,359.62 353.76,359.34 354.20,359.06 354.63,358.78 355.07,358.50 355.50,358.22 355.94,357.94 356.37,357.66 356.81,357.37 357.24,357.09 357.68,356.81 358.11,356.53 358.55,356.24 358.98,355.96 359.42,355.67 359.85,355.39 360.29,355.11 360.73,354.82 361.16,354.54 361.60,354.25 362.03,353.97 362.47,353.68 362.90,353.39 363.34,353.11 363.77,352.82 364.21,352.54 364.64,352.25 365.08,351.96 365.51,351.67 365.95,351.38 366.38,351.10 366.82,350.81 367.25,350.52 367.69,350.23 368.12,349.94 368.56,349.65 368.99,349.36 369.43,349.07 369.86,348.78 370.30,348.49 370.74,348.20 371.17,347.91 371.61,347.62 372.04,347.33 372.48,347.03 372.91,346.74 373.35,346.45 373.78,346.16 374.22,345.86 374.65,345.57 375.09,345.28 375.52,344.98 375.96,344.69 376.39,344.39 376.83,344.10 377.26,343.80 377.70,343.51 378.13,343.21 378.57,342.92 379.00,342.62 379.44,342.33 379.87,342.03 380.31,341.73 380.75,341.44 381.18,341.14 381.62,340.84 382.05,340.54 382.49,340.25 382.92,339.95 383.36,339.65 383.79,339.35 384.23,339.05 384.66,338.75 385.10,338.45 385.53,338.15 385.97,337.86 386.40,337.56 386.84,337.25 387.27,336.95 387.71,336.65 388.14,336.35 388.58,336.05 389.01,335.75 389.45,335.45 389.88,335.15 390.32,334.84 390.76,334.54 391.19,334.24 391.63,333.94 392.06,333.63 392.50,333.33 392.93,333.03 393.37,332.72 393.80,332.42 394.24,332.11 394.67,331.81 395.11,331.50 395.54,331.20 395.98,330.89 396.41,330.59 396.85,330.28 397.28,329.98 397.72,329.67 398.15,329.36 398.59,329.06 399.02,328.75 399.46,328.44 399.89,328.14 400.33,327.83 400.77,327.52 401.20,327.21 401.64,326.91 402.07,326.60 402.51,326.29 402.94,325.98 403.38,325.67 403.81,325.36 404.25,325.05 404.68,324.74 405.12,324.43 405.55,324.12 405.99,323.81 406.42,323.50 406.86,323.19 407.29,322.88 407.73,322.57 408.16,322.26 408.60,321.95 409.03,321.64 409.47,321.33 409.90,321.01 410.34,320.70 410.78,320.39 411.21,320.08 411.65,319.76 412.08,319.45 412.52,319.14 412.95,318.82 413.39,318.51 413.82,318.20 414.26,317.88 414.69,317.57 415.13,317.25 415.56,316.94 416.00,316.62 416.43,316.31 416.87,315.99 417.30,315.68 417.74,315.36 418.17,315.05 418.61,314.73 419.04,314.42 419.48,314.10 419.91,313.78 420.35,313.47 420.79,313.15 421.22,312.83 421.66,312.52 422.09,312.20 422.53,311.88 422.96,311.56 423.40,311.25 423.83,310.93 424.27,310.61 424.70,310.29 425.14,309.97 425.57,309.65 426.01,309.33 426.44,309.01 426.88,308.70 427.31,308.38 427.75,308.06 428.18,307.74 428.62,307.42 429.05,307.10 429.49,306.78 429.92,306.46 430.36,306.14 430.80,305.81 431.23,305.49 431.67,305.17 432.10,304.85 432.54,304.53 432.97,304.21 433.41,303.89 433.84,303.56 434.28,303.24 434.71,302.92 435.15,302.60 435.58,302.28 436.02,301.95 436.45,301.63 436.89,301.31 437.32,300.98 437.76,300.66 438.19,300.34 438.63,300.01 439.06,299.69 439.50,299.37 439.93,299.04 440.37,298.72 440.81,298.39 441.24,298.07 441.68,297.74 442.11,297.42 442.55,297.09 442.98,296.77 443.42,296.44 443.85,296.12 444.29,295.79 444.72,295.47 445.16,295.14 445.59,294.82 446.03,294.49 446.46,294.16 446.90,293.84 447.33,293.51 447.77,293.18 448.20,292.86 448.64,292.53 449.07,292.20 449.51,291.88 449.94,291.55 450.38,291.22 450.82,290.90 451.25,290.57 451.69,290.24 452.12,289.91 452.56,289.58 452.99,289.26 453.43,288.93 453.86,288.60 454.30,288.27 454.73,287.94 455.17,287.61 455.60,287.29 456.04,286.96 456.47,286.63 456.91,286.30 457.34,285.97 457.78,285.64 458.21,285.31 458.65,284.98 459.08,284.65 459.52,284.32 459.95,283.99 460.39,283.66 460.83,283.33 461.26,283.00 461.70,282.67 462.13,282.34 462.57,282.01 463.00,281.68 463.44,281.35 463.87,281.02 464.31,280.69 464.74,280.36 465.18,280.02 465.61,279.69 466.05,279.36 466.48,279.03 466.92,278.70 467.35,278.37 467.79,278.04 468.22,277.70 468.66,277.37 469.09,277.04 469.53,276.71 469.96,276.38 470.40,276.04 470.84,275.71 471.27,275.38 471.71,275.05 472.14,274.71 472.58,274.38 473.01,274.05 473.45,273.72 473.88,273.38 474.32,273.05 474.75,272.72 475.19,272.38 475.62,272.05 476.06,271.72 476.49,271.38 476.93,271.05 477.36,270.72 477.80,270.38 478.23,270.05 478.67,269.71 479.10,269.38 479.54,269.05 479.98,268.71 480.41,268.38 480.85,268.05 481.28,267.71 481.72,267.38 482.15,267.04 482.59,266.71 483.02,266.37 483.46,266.04 483.89,265.70 484.33,265.37 484.76,265.04 485.20,264.70 485.63,264.37 486.07,264.03 486.50,263.70 486.94,263.36 487.37,263.03 487.81,262.69 488.24,262.36 488.68,262.02 489.11,261.69 489.55,261.35 489.99,261.02 490.42,260.68 490.86,260.34 491.29,260.01 491.73,259.67 492.16,259.34 492.60,259.00 493.03,258.67 493.47,258.33 493.90,258.00 494.34,257.66 494.77,257.32 495.21,256.99 495.64,256.65 496.08,256.32 496.51,255.98 496.95,255.64 497.38,255.31 497.82,254.97 498.25,254.64 498.69,254.30 499.12,253.96 499.56,253.63 500.00,253.29 500.43,252.96 500.87,252.62 501.30,252.28 501.74,251.95 502.17,251.61 502.61,251.27 503.04,250.94 503.48,250.60 503.91,250.27 504.35,249.93 504.78,249.59 505.22,249.26 505.65,248.92 506.09,248.58 506.52,248.25 506.96,247.91 507.39,247.57 507.83,247.24 508.26,246.90 508.70,246.56 509.13,246.23 509.57,245.89 510.00,245.55 510.44,245.22 510.88,244.88 511.31,244.54 511.75,244.21 512.18,243.87 512.62,243.54 513.05,243.20 513.49,242.86 513.92,242.53 514.36,242.19 514.79,241.85 515.23,241.52 515.66,241.18 516.10,240.84 516.53,240.51 516.97,240.17 517.40,239.83 517.84,239.50 518.27,239.16 518.71,238.82 519.14,238.49 519.58,238.15 520.01,237.81 520.45,237.48 520.89,237.14 521.32,236.80 521.76,236.47 522.19,236.13 522.63,235.80 523.06,235.46 523.50,235.12 523.93,234.79 524.37,234.45 524.80,234.11 525.24,233.78 525.67,233.44 526.11,233.11 526.54,232.77 526.98,232.43 527.41,232.10 527.85,231.76 528.28,231.43 528.72,231.09 529.15,230.75 529.59,230.42 530.02,230.08 530.46,229.75 530.90,229.41 531.33,229.07 531.77,228.74 532.20,228.40 532.64,228.07 533.07,227.73 533.51,227.40 533.94,227.06 534.38,226.73 534.81,226.39 535.25,226.05 535.68,225.72 536.12,225.38 536.55,225.05 536.99,224.71 537.42,224.38 537.86,224.04 538.29,223.71 538.73,223.37 539.16,223.04 539.60,222.70 540.03,222.37 540.47,222.03 540.91,221.70 541.34,221.36 541.78,221.03 542.21,220.70 542.65,220.36 543.08,220.03 543.52,219.69 543.95,219.36 544.39,219.02 544.82,218.69 545.26,218.36 545.69,218.02 546.13,217.69 546.56,217.35 547.00,217.02 547.43,216.69 547.87,216.35 548.30,216.02 548.74,215.69 549.17,215.35 549.61,215.02 550.04,214.69 550.48,214.35 550.92,214.02 551.35,213.69 551.79,213.35 552.22,213.02 552.66,212.69 553.09,212.36 553.53,212.02 553.96,211.69 554.40,211.36 554.83,211.03 555.27,210.69 555.70,210.36 556.14,210.03 556.57,209.70 557.01,209.37 557.44,209.03 557.88,208.70 558.31,208.37 558.75,208.04 559.18,207.71 559.62,207.38 560.06,207.04 560.49,206.71 560.93,206.38 561.36,206.05 561.80,205.72 562.23,205.39 562.67,205.06 563.10,204.73 563.54,204.40 563.97,204.07 564.41,203.74 564.84,203.41 565.28,203.08 565.71,202.75 566.15,202.42 566.58,202.09 567.02,201.76 567.45,201.43 567.89,201.10 568.32,200.77 568.76,200.44 569.19,200.11 569.63,199.79 570.07,199.46 570.50,199.13 570.94,198.80 571.37,198.47 571.81,198.14 572.24,197.82 572.68,197.49 573.11,197.16 573.55,196.83 573.98,196.50 574.42,196.18 574.85,195.85 575.29,195.52 575.72,195.20 576.16,194.87 576.59,194.54 577.03,194.22 577.46,193.89 577.90,193.56 578.33,193.24 578.77,192.91 579.20,192.58 579.64,192.26 580.08,191.93 580.51,191.61 580.95,191.28 581.38,190.96 581.82,190.63 582.25,190.31 582.69,189.98 583.12,189.66 583.56,189.33 583.99,189.01 584.43,188.69 584.86,188.36 585.30,188.04 585.73,187.71 586.17,187.39 586.60,187.07 587.04,186.74 587.47,186.42 587.91,186.10 588.34,185.77 588.78,185.45 589.21,185.13 589.65,184.81 590.09,184.49 590.52,184.16 590.96,183.84 591.39,183.52 591.83,183.20 592.26,182.88 592.70,182.56 593.13,182.24 593.57,181.91 594.00,181.59 594.44,181.27 594.87,180.95 595.31,180.63 595.74,180.31 596.18,179.99 596.61,179.67 597.05,179.35 597.48,179.04 597.92,178.72 598.35,178.40 598.79,178.08 599.22,177.76 599.66,177.44 600.10,177.12 600.53,176.81 600.97,176.49 601.40,176.17 601.84,175.85 602.27,175.54 602.71,175.22 603.14,174.90 603.58,174.59 604.01,174.27 604.45,173.95 604.88,173.64 605.32,173.32 605.75,173.01 606.19,172.69 606.62,172.37 607.06,172.06 607.49,171.74 607.93,171.43 608.36,171.12 608.80,170.80 609.23,170.49 609.67,170.17 610.11,169.86 610.54,169.55 610.98,169.23 611.41,168.92 611.85,168.61 612.28,168.30 612.72,167.98 613.15,167.67 613.59,167.36 614.02,167.05 614.46,166.74 614.89,166.42 615.33,166.11 615.76,165.80 616.20,165.49 616.63,165.18 617.07,164.87 617.50,164.56 617.94,164.25 618.37,163.94 618.81,163.63 619.24,163.32 619.68,163.01 620.12,162.71 620.55,162.40 620.99,162.09 621.42,161.78 621.86,161.47 622.29,161.17 622.73,160.86 623.16,160.55 623.60,160.24 624.03,159.94 624.47,159.63 624.90,159.33 625.34,159.02 625.77,158.71 626.21,158.41 626.64,158.10 627.08,157.80 627.51,157.49 627.95,157.19 628.38,156.88 628.82,156.58 629.25,156.28 629.69,155.97 630.13,155.67 630.56,155.37 631.00,155.06 631.43,154.76 631.87,154.46 632.30,154.16 632.74,153.86 633.17,153.55 633.61,153.25 634.04,152.95 634.48,152.65 634.91,152.35 635.35,152.05 635.78,151.75 636.22,151.45 636.65,151.15 637.09,150.85 637.52,150.55 637.96,150.26 638.39,149.96 638.83,149.66 639.26,149.36 639.70,149.06 640.14,148.77 640.57,148.47 641.01,148.17 641.44,147.88 641.88,147.58 642.31,147.28 642.75,146.99 643.18,146.69 643.62,146.40 644.05,146.10 644.49,145.81 644.92,145.51 645.36,145.22 645.79,144.92 646.23,144.63 646.66,144.34 647.10,144.04 647.53,143.75 647.97,143.46 648.40,143.17 648.84,142.88 649.27,142.58 649.71,142.29 650.15,142.00 650.58,141.71 651.02,141.42 651.45,141.13 651.89,140.84 652.32,140.55 652.76,140.26 653.19,139.97 653.63,139.68 654.06,139.40 654.50,139.11 654.93,138.82 655.37,138.53 655.80,138.24 656.24,137.96 656.67,137.67 657.11,137.39 657.54,137.10 657.98,136.81 658.41,136.53 658.85,136.24 659.28,135.96 659.72,135.67 660.16,135.39 660.59,135.11 661.03,134.82 661.46,134.54 661.90,134.26 662.33,133.97 662.77,133.69 663.20,133.41 663.64,133.13 664.07,132.84 664.51,132.56 664.94,132.28 665.38,132.00 665.81,131.72 666.25,131.44 666.68,131.16 667.12,130.88 667.55,130.60 667.99,130.33 668.42,130.05 668.86,129.77 669.29,129.49 669.73,129.21 670.17,128.94 670.60,128.66 671.04,128.38 671.47,128.11 671.91,127.83 672.34,127.56 672.78,127.28 673.21,127.01 673.65,126.73 674.08,126.46 674.52,126.19 674.95,125.91 675.39,125.64 675.82,125.37 676.26,125.09 676.69,124.82 677.13,124.55 677.56,124.28 678.00,124.01 678.43,123.74 678.87,123.47 679.30,123.20 679.74,122.93 680.18,122.66 680.61,122.39 681.05,122.12 681.48,121.85 681.92,121.58 682.35,121.32 682.79,121.05 683.22,120.78 683.66,120.51 684.09,120.25 684.53,119.98 684.96,119.72 685.40,119.45 685.83,119.19 686.27,118.92 686.70,118.66 687.14,118.39 687.57,118.13 688.01,117.87 688.44,117.60 688.88,117.34 689.31,117.08 689.75,116.82 690.19,116.56 690.62,116.30 691.06,116.04 691.49,115.78 691.93,115.52 692.36,115.26 692.80,115.00 693.23,114.74 693.67,114.48 694.10,114.22 694.54,113.96 694.97,113.71 695.41,113.45 695.84,113.19 696.28,112.94 696.71,112.68 697.15,112.43 697.58,112.17 698.02,111.92 698.45,111.66 698.89,111.41 699.32,111.15 699.76,110.90 700.20,110.65 700.63,110.39 701.07,110.14 701.50,109.89 701.94,109.64 702.37,109.39 702.81,109.14 703.24,108.89 703.68,108.64 704.11,108.39 704.55,108.14 704.98,107.89 705.42,107.64 705.85,107.39 706.29,107.15 706.72,106.90 707.16,106.65 707.59,106.41 708.03,106.16 708.46,105.91 708.90,105.67 709.33,105.42 709.77,105.18 710.21,104.94 710.64,104.69 711.08,104.45 711.51,104.21 711.95,103.96 712.38,103.72 712.82,103.48 713.25,103.24 713.69,103.00 714.12,102.76 714.56,102.52 714.99,102.28 715.43,102.04 715.86,101.80 716.30,101.56 716.73,101.32 717.17,101.08 717.60,100.85 718.04,100.61 718.47,100.37 718.91,100.14 719.34,99.90 719.78,99.67 720.22,99.43 720.65,99.20 721.09,98.96 721.52,98.73 721.96,98.50 722.39,98.26 722.83,98.03 723.26,97.80 723.70,97.57 724.13,97.34 724.57,97.10 725.00,96.87 725.44,96.64 725.87,96.41 726.31,96.19 726.74,95.96 727.18,95.73 727.61,95.50 728.05,95.27 728.48,95.05 728.92,94.82 729.35,94.59 729.79,94.37 730.23,94.14 730.66,93.92 731.10,93.69 731.53,93.47 731.97,93.24 732.40,93.02 732.84,92.80 733.27,92.58 733.71,92.35 734.14,92.13 734.58,91.91 735.01,91.69 735.45,91.47 735.88,91.25 736.32,91.03 736.75,90.81 737.19,90.59 737.62,90.38 738.06,90.16 738.49,89.94 738.93,89.72 739.36,89.51 739.80,89.29 740.24,89.08 740.67,88.86 741.11,88.65 741.54,88.43 741.98,88.22 742.41,88.00 742.85,87.79 743.28,87.58 743.72,87.37 744.15,87.16 744.59,86.94 745.02,86.73 745.46,86.52 745.89,86.31 746.33,86.10 746.76,85.90 747.20,85.69 747.63,85.48 748.07,85.27 748.50,85.06 748.94,84.86 749.37,84.65 749.81,84.45 750.25,84.24 750.68,84.04 751.12,83.83 751.55,83.63 751.99,83.42 752.42,83.22 752.86,83.02 753.29,82.82 753.73,82.61 754.16,82.41 754.60,82.21 755.03,82.01 755.47,81.81 755.90,81.61 756.34,81.41 756.77,81.21 757.21,81.02 757.64,80.82 758.08,80.62 758.51,80.42 758.95,80.23 759.38,80.03 759.82,79.84 760.26,79.64 760.69,79.45 761.13,79.25 761.56,79.06 762.00,78.87 762.43,78.67 762.87,78.48 763.30,78.29 763.74,78.10 764.17,77.91 764.61,77.72 765.04,77.53 765.48,77.34 765.91,77.15 766.35,76.96 766.78,76.77 767.22,76.59 767.65,76.40 768.09,76.21 768.52,76.03 768.96,75.84 769.39,75.66 769.83,75.47 770.27,75.29 770.70,75.10 771.14,74.92 771.57,74.74 772.01,74.56 772.44,74.37 772.88,74.19 773.31,74.01 773.75,73.83 774.18,73.65 774.62,73.47 775.05,73.29 775.49,73.11 775.92,72.94 776.36,72.76 776.79,72.58 777.23,72.40 777.66,72.23 778.10,72.05 778.53,71.88 778.97,71.70 779.40,71.53 779.84,71.36 780.28,71.18 780.71,71.01 781.15,70.84 781.58,70.67 782.02,70.49 782.45,70.32 782.89,70.15 783.32,69.98 783.76,69.81 784.19,69.65 784.63,69.48 785.06,69.31 785.50,69.14 785.93,68.97 786.37,68.81 786.80,68.64 787.24,68.48 787.67,68.31 788.11,68.15 788.54,67.98 788.98,67.82 789.41,67.66 789.85,67.49 790.29,67.33 790.72,67.17 791.16,67.01 791.59,66.85 792.03,66.69 792.46,66.53 792.90,66.37 793.33,66.21 793.77,66.05 794.20,65.90 794.64,65.74 795.07,65.58 795.51,65.43 795.94,65.27 796.38,65.12 796.81,64.96 797.25,64.81 797.68,64.65 798.12,64.50 798.55,64.35 798.99,64.20 799.42,64.04 799.86,63.89 800.30,63.74 800.73,63.59 801.17,63.44 801.60,63.29 802.04,63.15 802.47,63.00 802.91,62.85 803.34,62.70 803.78,62.56 804.21,62.41 804.65,62.26 805.08,62.12 805.52,61.97 805.95,61.83 806.39,61.69 806.82,61.54 807.26,61.40 807.69,61.26 808.13,61.12 808.56,60.98 809.00,60.84 809.43,60.70 809.87,60.56 810.31,60.42 810.74,60.28 811.18,60.14 811.61,60.00 812.05,59.87 812.48,59.73 812.92,59.59 813.35,59.46 813.79,59.32 814.22,59.19 814.66,59.06 815.09,58.92 815.53,58.79 815.96,58.66 816.40,58.53 816.83,58.39 817.27,58.26 817.70,58.13 818.14,58.00 818.57,57.87 819.01,57.74 819.44,57.62 819.88,57.49 820.32,57.36 820.75,57.23 821.19,57.11 821.62,56.98 822.06,56.86 822.49,56.73 822.93,56.61 823.36,56.48 823.80,56.36 824.23,56.24 824.67,56.12 825.10,56.00 825.54,55.87 825.97,55.75 826.41,55.63 826.84,55.51 827.28,55.40 827.71,55.28 828.15,55.16 828.58,55.04 829.02,54.92 829.45,54.81 829.89,54.69 830.33,54.58 830.76,54.46 831.20,54.35 831.63,54.23 832.07,54.12 832.50,54.01 832.94,53.90 833.37,53.78 833.81,53.67 834.24,53.56 834.68,53.45 835.11,53.34 835.55,53.23 835.98,53.12 836.42,53.02 836.85,52.91 837.29,52.80 837.72,52.69 838.16,52.59 838.59,52.48 839.03,52.38 839.46,52.27 839.90,52.17 840.34,52.07 840.77,51.96 841.21,51.86 841.64,51.76 842.08,51.66 842.51,51.56 842.95,51.46 843.38,51.36 843.82,51.26 844.25,51.16 844.69,51.06 845.12,50.96 845.56,50.87 845.99,50.77 846.43,50.67 846.86,50.58 847.30,50.48 847.73,50.39 848.17,50.30 848.60,50.20 849.04,50.11 849.47,50.02 849.91,49.93 850.35,49.83 850.78,49.74 851.22,49.65 851.65,49.56 852.09,49.47 852.52,49.39 852.96,49.30 853.39,49.21 853.83,49.12 854.26,49.04 854.70,48.95 855.13,48.86 855.57,48.78 856.00,48.70 856.44,48.61 856.87,48.53 857.31,48.44 857.74,48.36 858.18,48.28 858.61,48.20 859.05,48.12 859.48,48.04 859.92,47.96 860.36,47.88 860.79,47.80 861.23,47.72 861.66,47.65 862.10,47.57 862.53,47.49 862.97,47.42 863.40,47.34 863.84,47.27 864.27,47.19 864.71,47.12 865.14,47.04 865.58,46.97 866.01,46.90 866.45,46.83 866.88,46.76 867.32,46.69 867.75,46.62 868.19,46.55 868.62,46.48 869.06,46.41 869.49,46.34 869.93,46.27 870.37,46.21 870.80,46.14 871.24,46.07 871.67,46.01 872.11,45.94 872.54,45.88 872.98,45.81 873.41,45.75 873.85,45.69 874.28,45.63 874.72,45.57 875.15,45.50 875.59,45.44 876.02,45.38 876.46,45.32 876.89,45.26 877.33,45.21 877.76,45.15 878.20,45.09 878.63,45.03 879.07,44.98 879.50,44.92 879.94,44.87 880.38,44.81 880.81,44.76 881.25,44.70 881.68,44.65 882.12,44.60 882.55,44.55 882.99,44.49 883.42,44.44 883.86,44.39 884.29,44.34 884.73,44.29 885.16,44.24 885.60,44.20 886.03,44.15 886.47,44.10 886.90,44.05 887.34,44.01 887.77,43.96 888.21,43.92 888.64,43.87 889.08,43.83 889.51,43.78 889.95,43.74 890.39,43.70 890.82,43.66 891.26,43.62 891.69,43.57 892.13,43.53 892.56,43.49 893.00,43.45 893.43,43.42 893.87,43.38 894.30,43.34 894.74,43.30 895.17,43.27 895.61,43.23 896.04,43.19 896.48,43.16 896.91,43.12 897.35,43.09 897.78,43.06 898.22,43.02 898.65,42.99 899.09,42.96 899.52,42.93 899.96,42.90 900.40,42.87 900.83,42.84 901.27,42.81 901.70,42.78 902.14,42.75 902.57,42.72 903.01,42.69 903.44,42.67 903.88,42.64 904.31,42.62 904.75,42.59 905.18,42.57 905.62,42.54 906.05,42.52 906.49,42.50 906.92,42.47 907.36,42.45 907.79,42.43 908.23,42.41 908.66,42.39 909.10,42.37 909.53,42.35 909.97,42.33 910.41,42.31 910.84,42.29 911.28,42.28 911.71,42.26 912.15,42.24 912.58,42.23 913.02,42.21 913.45,42.20 913.89,42.18 914.32,42.17 914.76,42.16 915.19,42.14 915.63,42.13 916.06,42.12 916.50,42.11 916.93,42.10 917.37,42.09 917.80,42.08 918.24,42.07 918.67,42.06 919.11,42.06 919.54,42.05 919.98,42.04 920.42,42.04 920.85,42.03 921.29,42.02 921.72,42.02 922.16,42.02 922.59,42.01 923.03,42.01 923.46,42.01 923.90,42.00 924.33,42.00 924.77,42.00 925.20,42.00 925.64,42.00 926.07,42.00 926.51,42.00 926.94,42.00 927.38,42.00 927.81,42.01 928.25,42.01 928.68,42.01 929.12,42.02 929.55,42.02 929.99,42.03 930.43,42.03 930.86,42.04 931.30,42.05 931.73,42.05 932.17,42.06 932.60,42.07 933.04,42.08 933.47,42.09 933.91,42.10 934.34,42.11 934.78,42.12 935.21,42.13 935.65,42.14 936.08,42.15 936.52,42.17 936.95,42.18 937.39,42.19 937.82,42.21 938.26,42.22 938.69,42.24 939.13,42.25 939.56,42.27 940.00,42.29"/>
  <text x="505.0" y="500" text-anchor="middle" font-family="Arial" font-size="14" fill="#1f2937">energy_ev [0.01, 20]</text>
  <text x="24" y="250.0" transform="rotate(-90 24 250.0)" text-anchor="middle" font-family="Arial" font-size="14" fill="#1f2937">cross_section [5.134e-07, 0.8617]</text>
</svg>