<?xml version="1.0" encoding="UTF-8"?>
<svg xmlns="http://www.w3.org/2000/svg" width="960" height="520" viewBox="0 0 960 520">
  <rect x="0" y="0" width="100%" height="100%" fill="#ffffff"/>
  <text x="70" y="24" font-family="Arial" font-size="18" fill="#1f2937">H2O TDDFT absorption cross section :: td_dipole</text>
  <line x1="70" y1="458" x2="940" y2="458" stroke="#5f6b7a" stroke-width="1.5"/>
  <line x1="70" y1="42" x2="70" y2="458" stroke="#5f6b7a" stroke-width="1.5"/>
  <polyline fill="none" stroke="#0b6cff" stroke-width="2" points="70.00,457.58 70.35,457.58 70.70,457.58 71.04,457.58 71.39,457.58 71.74,457.58 72.09,457.58 72.44,457.58 72.78,457.58 73.13,457.58 73.48,457.58 73.83,457.58 74.18,457.58 74.52,457.58 74.87,457.58 75.22,457.58 75.57,457.58 75.92,457.58 76.26,457.58 76.61,457.58 76.96,457.58 77.31,457.58 77.66,457.58 78.00,457.58 78.35,457.58 78.70,457.58 79.05,457.58 79.40,457.58 79.74,457.58 80.09,457.58 80.44,457.58 80.79,457.58 81.14,457.58 81.48,457.58 81.83,457.58 82.18,457.58 82.53,457.58 82.88,457.58 83.22,457.58 83.57,457.58 83.92,457.58 84.27,457.58 84.62,457.58 84.96,457.59 85.31,457.59 85.66,457.59 86.01,457.59 86.36,457.59 86.70,457.59 87.05,457.59 87.40,457.60 87.75,457.60 88.10,457.60 88.44,457.60 88.79,457.61 89.14,457.61 89.49,457.61 89.84,457.61 90.18,457.62 90.53,457.62 90.88,457.62 91.23,457.62 91.58,457.63 91.92,457.63 92.27,457.63 92.62,457.64 92.97,457.64 93.32,457.64 93.66,457.65 94.01,457.65 94.36,457.65 94.71,457.66 95.06,457.66 95.40,457.67 95.75,457.67 96.10,457.68 96.45,457.68 96.80,457.68 97.14,457.69 97.49,457.69 97.84,457.70 98.19,457.70 98.54,457.71 98.88,457.71 99.23,457.72 99.58,457.72 99.93,457.73 100.28,457.73 100.62,457.74 100.97,457.74 101.32,457.75 101.67,457.76 102.02,457.76 102.36,457.77 102.71,457.77 103.06,457.78 103.41,457.79 103.76,457.79 104.10,457.80 104.45,457.80 104.80,457.81 105.15,457.82 105.50,457.82 105.84,457.83 106.19,457.84 106.54,457.84 106.89,457.85 107.24,457.85 107.58,457.86 107.93,457.87 108.28,457.87 108.63,457.88 108.98,457.89 109.32,457.89 109.67,457.90 110.02,457.90 110.37,457.91 110.72,457.92 111.06,457.92 111.41,457.93 111.76,457.93 112.11,457.94 112.46,457.94 112.80,457.95 113.15,457.95 113.50,457.96 113.85,457.96 114.20,457.97 114.54,457.97 114.89,457.97 115.24,457.98 115.59,457.98 115.94,457.98 116.28,457.99 116.63,457.99 116.98,457.99 117.33,457.99 117.68,458.00 118.02,458.00 118.37,458.00 118.72,458.00 119.07,458.00 119.42,458.00 119.76,458.00 120.11,458.00 120.46,458.00 120.81,458.00 121.16,457.99 121.50,457.99 121.85,457.99 122.20,457.99 122.55,457.98 122.90,457.98 123.24,457.98 123.59,457.97 123.94,457.97 124.29,457.96 124.64,457.95 124.98,457.95 125.33,457.94 125.68,457.93 126.03,457.93 126.38,457.92 126.72,457.91 127.07,457.90 127.42,457.89 127.77,457.88 128.12,457.87 128.46,457.86 128.81,457.85 129.16,457.84 129.51,457.83 129.86,457.81 130.20,457.80 130.55,457.79 130.90,457.77 131.25,457.76 131.60,457.75 131.94,457.73 132.29,457.72 132.64,457.70 132.99,457.69 133.34,457.67 133.68,457.65 134.03,457.64 134.38,457.62 134.73,457.60 135.08,457.59 135.42,457.57 135.77,457.55 136.12,457.53 136.47,457.52 136.82,457.50 137.16,457.48 137.51,457.46 137.86,457.44 138.21,457.43 138.56,457.41 138.90,457.39 139.25,457.37 139.60,457.35 139.95,457.33 140.30,457.31 140.64,457.30 140.99,457.28 141.34,457.26 141.69,457.24 142.04,457.22 142.38,457.20 142.73,457.19 143.08,457.17 143.43,457.15 143.78,457.13 144.12,457.12 144.47,457.10 144.82,457.08 145.17,457.07 145.52,457.05 145.86,457.04 146.21,457.02 146.56,457.01 146.91,456.99 147.26,456.98 147.60,456.96 147.95,456.95 148.30,456.94 148.65,456.92 149.00,456.91 149.34,456.90 149.69,456.89 150.04,456.88 150.39,456.87 150.74,456.86 151.08,456.85 151.43,456.84 151.78,456.83 152.13,456.82 152.48,456.82 152.82,456.81 153.17,456.80 153.52,456.80 153.87,456.79 154.22,456.79 154.56,456.78 154.91,456.78 155.26,456.77 155.61,456.77 155.96,456.77 156.30,456.77 156.65,456.77 157.00,456.77 157.35,456.77 157.70,456.77 158.04,456.77 158.39,456.77 158.74,456.77 159.09,456.77 159.44,456.78 159.78,456.78 160.13,456.78 160.48,456.79 160.83,456.79 161.18,456.80 161.52,456.80 161.87,456.81 162.22,456.81 162.57,456.82 162.92,456.83 163.26,456.83 163.61,456.84 163.96,456.85 164.31,456.86 164.66,456.86 165.00,456.87 165.35,456.88 165.70,456.89 166.05,456.90 166.40,456.91 166.74,456.92 167.09,456.93 167.44,456.93 167.79,456.94 168.14,456.95 168.48,456.96 168.83,456.97 169.18,456.98 169.53,456.99 169.88,457.00 170.22,457.01 170.57,457.02 170.92,457.03 171.27,457.03 171.62,457.04 171.96,457.05 172.31,457.06 172.66,457.07 173.01,457.07 173.36,457.08 173.70,457.09 174.05,457.09 174.40,457.10 174.75,457.10 175.10,457.11 175.44,457.11 175.79,457.12 176.14,457.12 176.49,457.12 176.84,457.12 177.18,457.12 177.53,457.12 177.88,457.12 178.23,457.12 178.58,457.12 178.92,457.12 179.27,457.12 179.62,457.11 179.97,457.11 180.32,457.10 180.66,457.10 181.01,457.09 181.36,457.08 181.71,457.08 182.06,457.07 182.40,457.05 182.75,457.04 183.10,457.03 183.45,457.02 183.80,457.00 184.14,456.99 184.49,456.97 184.84,456.96 185.19,456.94 185.54,456.92 185.88,456.90 186.23,456.88 186.58,456.85 186.93,456.83 187.28,456.81 187.62,456.78 187.97,456.76 188.32,456.73 188.67,456.70 189.02,456.67 189.36,456.64 189.71,456.61 190.06,456.58 190.41,456.54 190.76,456.51 191.10,456.47 191.45,456.43 191.80,456.40 192.15,456.36 192.50,456.32 192.84,456.28 193.19,456.24 193.54,456.19 193.89,456.15 194.24,456.11 194.58,456.06 194.93,456.02 195.28,455.97 195.63,455.92 195.98,455.87 196.32,455.82 196.67,455.77 197.02,455.72 197.37,455.67 197.72,455.62 198.06,455.56 198.41,455.51 198.76,455.45 199.11,455.40 199.46,455.34 199.80,455.29 200.15,455.23 200.50,455.17 200.85,455.11 201.20,455.05 201.54,454.99 201.89,454.93 202.24,454.87 202.59,454.81 202.94,454.75 203.28,454.69 203.63,454.63 203.98,454.57 204.33,454.50 204.68,454.44 205.02,454.38 205.37,454.32 205.72,454.25 206.07,454.19 206.42,454.13 206.76,454.07 207.11,454.00 207.46,453.94 207.81,453.88 208.16,453.81 208.50,453.75 208.85,453.69 209.20,453.63 209.55,453.56 209.90,453.50 210.24,453.44 210.59,453.37 210.94,453.31 211.29,453.25 211.64,453.19 211.98,453.13 212.33,453.06 212.68,453.00 213.03,452.94 213.38,452.88 213.72,452.83 214.07,452.77 214.42,452.71 214.77,452.65 215.12,452.60 215.46,452.54 215.81,452.49 216.16,452.43 216.51,452.38 216.86,452.33 217.20,452.28 217.55,452.23 217.90,452.17 218.25,452.13 218.60,452.08 218.94,452.03 219.29,451.98 219.64,451.93 219.99,451.89 220.34,451.84 220.68,451.79 221.03,451.75 221.38,451.70 221.73,451.66 222.08,451.62 222.42,451.57 222.77,451.53 223.12,451.49 223.47,451.45 223.82,451.41 224.16,451.37 224.51,451.33 224.86,451.29 225.21,451.26 225.56,451.22 225.90,451.18 226.25,451.15 226.60,451.12 226.95,451.08 227.30,451.05 227.64,451.02 227.99,450.99 228.34,450.96 228.69,450.93 229.04,450.90 229.38,450.88 229.73,450.85 230.08,450.82 230.43,450.80 230.78,450.77 231.12,450.75 231.47,450.73 231.82,450.70 232.17,450.68 232.52,450.66 232.86,450.63 233.21,450.61 233.56,450.59 233.91,450.57 234.26,450.54 234.60,450.52 234.95,450.50 235.30,450.48 235.65,450.45 236.00,450.43 236.34,450.41 236.69,450.39 237.04,450.36 237.39,450.34 237.74,450.32 238.08,450.29 238.43,450.27 238.78,450.25 239.13,450.22 239.48,450.20 239.82,450.17 240.17,450.15 240.52,450.12 240.87,450.09 241.22,450.07 241.56,450.04 241.91,450.01 242.26,449.99 242.61,449.96 242.96,449.93 243.30,449.90 243.65,449.87 244.00,449.84 244.35,449.81 244.70,449.78 245.04,449.75 245.39,449.71 245.74,449.68 246.09,449.65 246.44,449.61 246.78,449.58 247.13,449.54 247.48,449.50 247.83,449.46 248.18,449.42 248.52,449.38 248.87,449.34 249.22,449.30 249.57,449.25 249.92,449.20 250.26,449.16 250.61,449.11 250.96,449.06 251.31,449.00 251.66,448.95 252.00,448.90 252.35,448.84 252.70,448.78 253.05,448.72 253.40,448.66 253.74,448.60 254.09,448.53 254.44,448.47 254.79,448.40 255.14,448.33 255.48,448.27 255.83,448.19 256.18,448.12 256.53,448.05 256.88,447.98 257.22,447.90 257.57,447.82 257.92,447.75 258.27,447.67 258.62,447.59 258.96,447.51 259.31,447.42 259.66,447.34 260.01,447.26 260.36,447.17 260.70,447.08 261.05,447.00 261.40,446.91 261.75,446.82 262.10,446.73 262.44,446.64 262.79,446.54 263.14,446.45 263.49,446.35 263.84,446.26 264.18,446.16 264.53,446.06 264.88,445.96 265.23,445.86 265.58,445.76 265.92,445.65 266.27,445.55 266.62,445.44 266.97,445.34 267.32,445.23 267.66,445.12 268.01,445.01 268.36,444.90 268.71,444.79 269.06,444.68 269.40,444.56 269.75,444.45 270.10,444.34 270.45,444.22 270.80,444.11 271.14,443.99 271.49,443.88 271.84,443.76 272.19,443.64 272.54,443.53 272.88,443.41 273.23,443.29 273.58,443.18 273.93,443.06 274.28,442.94 274.62,442.83 274.97,442.71 275.32,442.59 275.67,442.47 276.02,442.36 276.36,442.24 276.71,442.13 277.06,442.01 277.41,441.89 277.76,441.78 278.10,441.66 278.45,441.55 278.80,441.43 279.15,441.32 279.50,441.21 279.84,441.09 280.19,440.98 280.54,440.87 280.89,440.76 281.24,440.65 281.58,440.54 281.93,440.43 282.28,440.33 282.63,440.22 282.98,440.11 283.32,440.01 283.67,439.91 284.02,439.80 284.37,439.70 284.72,439.60 285.06,439.50 285.41,439.41 285.76,439.31 286.11,439.22 286.46,439.12 286.80,439.03 287.15,438.94 287.50,438.85 287.85,438.76 288.20,438.68 288.54,438.59 288.89,438.51 289.24,438.42 289.59,438.34 289.94,438.26 290.28,438.18 290.63,438.10 290.98,438.02 291.33,437.95 291.68,437.87 292.02,437.80 292.37,437.72 292.72,437.65 293.07,437.58 293.42,437.50 293.76,437.43 294.11,437.36 294.46,437.29 294.81,437.22 295.16,437.15 295.50,437.08 295.85,437.02 296.20,436.95 296.55,436.88 296.90,436.81 297.24,436.75 297.59,436.68 297.94,436.62 298.29,436.55 298.64,436.49 298.98,436.42 299.33,436.36 299.68,436.29 300.03,436.23 300.38,436.17 300.72,436.11 301.07,436.04 301.42,435.98 301.77,435.92 302.12,435.86 302.46,435.80 302.81,435.74 303.16,435.68 303.51,435.62 303.86,435.56 304.20,435.50 304.55,435.45 304.90,435.39 305.25,435.33 305.60,435.28 305.94,435.22 306.29,435.16 306.64,435.11 306.99,435.05 307.34,434.99 307.68,434.94 308.03,434.88 308.38,434.83 308.73,434.77 309.08,434.71 309.42,434.65 309.77,434.60 310.12,434.54 310.47,434.48 310.82,434.42 311.16,434.36 311.51,434.30 311.86,434.24 312.21,434.18 312.56,434.11 312.90,434.05 313.25,433.98 313.60,433.92 313.95,433.85 314.30,433.78 314.64,433.71 314.99,433.63 315.34,433.56 315.69,433.48 316.04,433.41 316.38,433.33 316.73,433.25 317.08,433.16 317.43,433.08 317.78,432.99 318.12,432.91 318.47,432.82 318.82,432.72 319.17,432.63 319.52,432.54 319.86,432.44 320.21,432.34 320.56,432.24 320.91,432.14 321.26,432.04 321.60,431.94 321.95,431.83 322.30,431.72 322.65,431.61 323.00,431.50 323.34,431.39 323.69,431.27 324.04,431.16 324.39,431.04 324.74,430.92 325.08,430.80 325.43,430.68 325.78,430.56 326.13,430.44 326.48,430.31 326.82,430.19 327.17,430.06 327.52,429.93 327.87,429.80 328.22,429.67 328.56,429.54 328.91,429.41 329.26,429.27 329.61,429.14 329.96,429.00 330.30,428.86 330.65,428.72 331.00,428.58 331.35,428.44 331.70,428.30 332.04,428.15 332.39,428.01 332.74,427.86 333.09,427.72 333.44,427.57 333.78,427.42 334.13,427.27 334.48,427.12 334.83,426.96 335.18,426.81 335.52,426.65 335.87,426.50 336.22,426.34 336.57,426.19 336.92,426.03 337.26,425.87 337.61,425.71 337.96,425.55 338.31,425.39 338.66,425.23 339.00,425.06 339.35,424.90 339.70,424.74 340.05,424.57 340.40,424.41 340.74,424.25 341.09,424.08 341.44,423.92 341.79,423.75 342.14,423.58 342.48,423.42 342.83,423.25 343.18,423.09 343.53,422.92 343.88,422.76 344.22,422.59 344.57,422.43 344.92,422.26 345.27,422.10 345.62,421.94 345.96,421.78 346.31,421.62 346.66,421.45 347.01,421.30 347.36,421.14 347.70,420.98 348.05,420.82 348.40,420.67 348.75,420.51 349.10,420.36 349.44,420.20 349.79,420.05 350.14,419.90 350.49,419.75 350.84,419.60 351.18,419.45 351.53,419.31 351.88,419.16 352.23,419.02 352.58,418.87 352.92,418.73 353.27,418.59 353.62,418.45 353.97,418.31 354.32,418.17 354.66,418.03 355.01,417.90 355.36,417.76 355.71,417.63 356.06,417.49 356.40,417.36 356.75,417.23 357.10,417.10 357.45,416.97 357.80,416.85 358.14,416.72 358.49,416.59 358.84,416.47 359.19,416.35 359.54,416.22 359.88,416.10 360.23,415.98 360.58,415.86 360.93,415.74 361.28,415.62 361.62,415.51 361.97,415.39 362.32,415.27 362.67,415.16 363.02,415.04 363.36,414.93 363.71,414.81 364.06,414.70 364.41,414.59 364.76,414.47 365.10,414.36 365.45,414.25 365.80,414.14 366.15,414.03 366.50,413.92 366.84,413.81 367.19,413.71 367.54,413.60 367.89,413.49 368.24,413.39 368.58,413.28 368.93,413.18 369.28,413.07 369.63,412.97 369.98,412.87 370.32,412.76 370.67,412.66 371.02,412.56 371.37,412.46 371.72,412.36 372.06,412.26 372.41,412.16 372.76,412.06 373.11,411.97 373.46,411.87 373.80,411.77 374.15,411.67 374.50,411.57 374.85,411.47 375.20,411.37 375.54,411.27 375.89,411.17 376.24,411.07 376.59,410.97 376.94,410.87 377.28,410.77 377.63,410.67 377.98,410.56 378.33,410.46 378.68,410.35 379.02,410.25 379.37,410.14 379.72,410.03 380.07,409.92 380.42,409.81 380.76,409.70 381.11,409.59 381.46,409.48 381.81,409.36 382.16,409.25 382.50,409.13 382.85,409.01 383.20,408.89 383.55,408.77 383.90,408.65 384.24,408.52 384.59,408.39 384.94,408.27 385.29,408.14 385.64,408.00 385.98,407.87 386.33,407.73 386.68,407.59 387.03,407.45 387.38,407.31 387.72,407.17 388.07,407.02 388.42,406.87 388.77,406.72 389.12,406.56 389.46,406.40 389.81,406.24 390.16,406.08 390.51,405.92 390.86,405.75 391.20,405.58 391.55,405.41 391.90,405.24 392.25,405.06 392.60,404.89 392.94,404.71 393.29,404.53 393.64,404.34 393.99,404.16 394.34,403.98 394.68,403.79 395.03,403.60 395.38,403.41 395.73,403.22 396.08,403.03 396.42,402.83 396.77,402.64 397.12,402.45 397.47,402.25 397.82,402.05 398.16,401.85 398.51,401.66 398.86,401.46 399.21,401.25 399.56,401.05 399.90,400.85 400.25,400.65 400.60,400.44 400.95,400.24 401.30,400.03 401.64,399.83 401.99,399.62 402.34,399.41 402.69,399.20 403.04,399.00 403.38,398.79 403.73,398.58 404.08,398.36 404.43,398.15 404.78,397.94 405.12,397.73 405.47,397.52 405.82,397.30 406.17,397.09 406.52,396.88 406.86,396.66 407.21,396.45 407.56,396.24 407.91,396.02 408.26,395.81 408.60,395.60 408.95,395.39 409.30,395.17 409.65,394.96 410.00,394.75 410.34,394.54 410.69,394.33 411.04,394.12 411.39,393.90 411.74,393.69 412.08,393.48 412.43,393.27 412.78,393.06 413.13,392.86 413.48,392.65 413.82,392.44 414.17,392.23 414.52,392.02 414.87,391.81 415.22,391.60 415.56,391.39 415.91,391.18 416.26,390.98 416.61,390.77 416.96,390.56 417.30,390.35 417.65,390.14 418.00,389.93 418.35,389.72 418.70,389.51 419.04,389.30 419.39,389.10 419.74,388.89 420.09,388.68 420.44,388.47 420.78,388.26 421.13,388.05 421.48,387.84 421.83,387.63 422.18,387.42 422.52,387.22 422.87,387.01 423.22,386.80 423.57,386.59 423.92,386.39 424.26,386.18 424.61,385.98 424.96,385.77 425.31,385.57 425.66,385.37 426.00,385.17 426.35,384.97 426.70,384.77 427.05,384.57 427.40,384.38 427.74,384.18 428.09,383.99 428.44,383.80 428.79,383.61 429.14,383.42 429.48,383.23 429.83,383.04 430.18,382.86 430.53,382.67 430.88,382.49 431.22,382.31 431.57,382.13 431.92,381.95 432.27,381.78 432.62,381.60 432.96,381.43 433.31,381.25 433.66,381.08 434.01,380.91 434.36,380.74 434.70,380.57 435.05,380.40 435.40,380.24 435.75,380.07 436.10,379.90 436.44,379.73 436.79,379.57 437.14,379.40 437.49,379.24 437.84,379.07 438.18,378.91 438.53,378.75 438.88,378.58 439.23,378.42 439.58,378.25 439.92,378.09 440.27,377.92 440.62,377.76 440.97,377.60 441.32,377.43 441.66,377.27 442.01,377.10 442.36,376.94 442.71,376.77 443.06,376.61 443.40,376.44 443.75,376.28 444.10,376.11 444.45,375.94 444.80,375.77 445.14,375.61 445.49,375.44 445.84,375.27 446.19,375.10 446.54,374.93 446.88,374.75 447.23,374.58 447.58,374.41 447.93,374.23 448.28,374.05 448.62,373.87 448.97,373.69 449.32,373.51 449.67,373.33 450.02,373.14 450.36,372.96 450.71,372.77 451.06,372.58 451.41,372.38 451.76,372.19 452.10,371.99 452.45,371.79 452.80,371.59 453.15,371.38 453.50,371.18 453.84,370.96 454.19,370.75 454.54,370.54 454.89,370.32 455.24,370.10 455.58,369.87 455.93,369.65 456.28,369.42 456.63,369.19 456.98,368.96 457.32,368.72 457.67,368.48 458.02,368.24 458.37,368.00 458.72,367.76 459.06,367.51 459.41,367.26 459.76,367.01 460.11,366.76 460.46,366.51 460.80,366.25 461.15,366.00 461.50,365.74 461.85,365.48 462.20,365.22 462.54,364.96 462.89,364.70 463.24,364.43 463.59,364.17 463.94,363.91 464.28,363.64 464.63,363.37 464.98,363.11 465.33,362.84 465.68,362.57 466.02,362.31 466.37,362.04 466.72,361.77 467.07,361.50 467.42,361.23 467.76,360.96 468.11,360.69 468.46,360.42 468.81,360.15 469.16,359.88 469.50,359.61 469.85,359.34 470.20,359.07 470.55,358.79 470.90,358.52 471.24,358.25 471.59,357.98 471.94,357.70 472.29,357.43 472.64,357.16 472.98,356.88 473.33,356.61 473.68,356.33 474.03,356.06 474.38,355.79 474.72,355.51 475.07,355.24 475.42,354.96 475.77,354.69 476.12,354.41 476.46,354.14 476.81,353.86 477.16,353.59 477.51,353.32 477.86,353.04 478.20,352.77 478.55,352.50 478.90,352.22 479.25,351.95 479.60,351.68 479.94,351.41 480.29,351.13 480.64,350.86 480.99,350.59 481.34,350.32 481.68,350.05 482.03,349.79 482.38,349.52 482.73,349.25 483.08,348.98 483.42,348.71 483.77,348.45 484.12,348.18 484.47,347.92 484.82,347.65 485.16,347.39 485.51,347.12 485.86,346.86 486.21,346.60 486.56,346.33 486.90,346.07 487.25,345.81 487.60,345.55 487.95,345.29 488.30,345.03 488.64,344.76 488.99,344.50 489.34,344.24 489.69,343.98 490.04,343.72 490.38,343.46 490.73,343.20 491.08,342.94 491.43,342.68 491.78,342.42 492.12,342.16 492.47,341.90 492.82,341.64 493.17,341.37 493.52,341.11 493.86,340.85 494.21,340.59 494.56,340.33 494.91,340.07 495.26,339.81 495.60,339.54 495.95,339.28 496.30,339.02 496.65,338.76 497.00,338.50 497.34,338.24 497.69,337.98 498.04,337.72 498.39,337.46 498.74,337.20 499.08,336.95 499.43,336.69 499.78,336.43 500.13,336.18 500.48,335.92 500.82,335.67 501.17,335.41 501.52,335.16 501.87,334.91 502.22,334.66 502.56,334.41 502.91,334.16 503.26,333.91 503.61,333.66 503.96,333.41 504.30,333.17 504.65,332.92 505.00,332.68 505.35,332.44 505.70,332.20 506.04,331.95 506.39,331.71 506.74,331.48 507.09,331.24 507.44,331.00 507.78,330.76 508.13,330.53 508.48,330.29 508.83,330.06 509.18,329.82 509.52,329.59 509.87,329.36 510.22,329.13 510.57,328.90 510.92,328.66 511.26,328.43 511.61,328.20 511.96,327.98 512.31,327.75 512.66,327.52 513.00,327.29 513.35,327.06 513.70,326.83 514.05,326.60 514.40,326.37 514.74,326.14 515.09,325.91 515.44,325.68 515.79,325.45 516.14,325.22 516.48,324.99 516.83,324.75 517.18,324.52 517.53,324.28 517.88,324.05 518.22,323.81 518.57,323.57 518.92,323.34 519.27,323.10 519.62,322.85 519.96,322.61 520.31,322.37 520.66,322.12 521.01,321.88 521.36,321.63 521.70,321.38 522.05,321.13 522.40,320.88 522.75,320.63 523.10,320.37 523.44,320.11 523.79,319.86 524.14,319.60 524.49,319.33 524.84,319.07 525.18,318.81 525.53,318.54 525.88,318.27 526.23,318.00 526.58,317.73 526.92,317.45 527.27,317.17 527.62,316.90 527.97,316.62 528.32,316.33 528.66,316.05 529.01,315.76 529.36,315.47 529.71,315.18 530.06,314.89 530.40,314.60 530.75,314.30 531.10,314.00 531.45,313.70 531.80,313.40 532.14,313.10 532.49,312.79 532.84,312.49 533.19,312.18 533.54,311.87 533.88,311.56 534.23,311.24 534.58,310.93 534.93,310.61 535.28,310.30 535.62,309.98 535.97,309.66 536.32,309.34 536.67,309.02 537.02,308.69 537.36,308.37 537.71,308.05 538.06,307.72 538.41,307.39 538.76,307.07 539.10,306.74 539.45,306.41 539.80,306.08 540.15,305.75 540.50,305.42 540.84,305.09 541.19,304.76 541.54,304.42 541.89,304.09 542.24,303.76 542.58,303.43 542.93,303.09 543.28,302.76 543.63,302.43 543.98,302.09 544.32,301.76 544.67,301.43 545.02,301.10 545.37,300.76 545.72,300.43 546.06,300.10 546.41,299.77 546.76,299.44 547.11,299.11 547.46,298.78 547.80,298.45 548.15,298.12 548.50,297.80 548.85,297.47 549.20,297.14 549.54,296.82 549.89,296.50 550.24,296.18 550.59,295.85 550.94,295.54 551.28,295.22 551.63,294.90 551.98,294.59 552.33,294.27 552.68,293.96 553.02,293.65 553.37,293.34 553.72,293.03 554.07,292.72 554.42,292.42 554.76,292.12 555.11,291.81 555.46,291.51 555.81,291.21 556.16,290.92 556.50,290.62 556.85,290.33 557.20,290.03 557.55,289.74 557.90,289.45 558.24,289.17 558.59,288.88 558.94,288.60 559.29,288.31 559.64,288.03 559.98,287.75 560.33,287.47 560.68,287.19 561.03,286.92 561.38,286.64 561.72,286.37 562.07,286.09 562.42,285.82 562.77,285.55 563.12,285.28 563.46,285.01 563.81,284.74 564.16,284.48 564.51,284.21 564.86,283.94 565.20,283.68 565.55,283.41 565.90,283.15 566.25,282.89 566.60,282.62 566.94,282.36 567.29,282.10 567.64,281.83 567.99,281.57 568.34,281.31 568.68,281.05 569.03,280.78 569.38,280.52 569.73,280.26 570.08,279.99 570.42,279.73 570.77,279.47 571.12,279.20 571.47,278.93 571.82,278.67 572.16,278.40 572.51,278.13 572.86,277.87 573.21,277.60 573.56,277.33 573.90,277.06 574.25,276.79 574.60,276.51 574.95,276.24 575.30,275.97 575.64,275.69 575.99,275.42 576.34,275.14 576.69,274.86 577.04,274.59 577.38,274.31 577.73,274.03 578.08,273.75 578.43,273.47 578.78,273.19 579.12,272.90 579.47,272.62 579.82,272.34 580.17,272.05 580.52,271.77 580.86,271.48 581.21,271.20 581.56,270.91 581.91,270.63 582.26,270.34 582.60,270.06 582.95,269.77 583.30,269.48 583.65,269.19 584.00,268.91 584.34,268.62 584.69,268.33 585.04,268.04 585.39,267.76 585.74,267.47 586.08,267.18 586.43,266.89 586.78,266.60 587.13,266.31 587.48,266.02 587.82,265.73 588.17,265.44 588.52,265.15 588.87,264.86 589.22,264.57 589.56,264.28 589.91,263.99 590.26,263.70 590.61,263.41 590.96,263.12 591.30,262.82 591.65,262.53 592.00,262.24 592.35,261.94 592.70,261.65 593.04,261.35 593.39,261.06 593.74,260.76 594.09,260.47 594.44,260.17 594.78,259.88 595.13,259.58 595.48,259.28 595.83,258.98 596.18,258.68 596.52,258.38 596.87,258.08 597.22,257.78 597.57,257.48 597.92,257.18 598.26,256.88 598.61,256.57 598.96,256.27 599.31,255.96 599.66,255.66 600.00,255.35 600.35,255.05 600.70,254.74 601.05,254.43 601.40,254.12 601.74,253.81 602.09,253.50 602.44,253.19 602.79,252.88 603.14,252.57 603.48,252.25 603.83,251.94 604.18,251.62 604.53,251.31 604.88,250.99 605.22,250.67 605.57,250.36 605.92,250.04 606.27,249.72 606.62,249.40 606.96,249.08 607.31,248.75 607.66,248.43 608.01,248.11 608.36,247.78 608.70,247.46 609.05,247.13 609.40,246.81 609.75,246.48 610.10,246.15 610.44,245.82 610.79,245.50 611.14,245.17 611.49,244.84 611.84,244.51 612.18,244.18 612.53,243.85 612.88,243.52 613.23,243.18 613.58,242.85 613.92,242.52 614.27,242.19 614.62,241.86 614.97,241.52 615.32,241.19 615.66,240.86 616.01,240.52 616.36,240.19 616.71,239.86 617.06,239.52 617.40,239.19 617.75,238.85 618.10,238.52 618.45,238.18 618.80,237.85 619.14,237.51 619.49,237.18 619.84,236.84 620.19,236.50 620.54,236.17 620.88,235.83 621.23,235.49 621.58,235.15 621.93,234.81 622.28,234.48 622.62,234.14 622.97,233.80 623.32,233.46 623.67,233.12 624.02,232.78 624.36,232.43 624.71,232.09 625.06,231.75 625.41,231.41 625.76,231.07 626.10,230.72 626.45,230.38 626.80,230.04 627.15,229.69 627.50,229.35 627.84,229.01 628.19,228.66 628.54,228.32 628.89,227.97 629.24,227.63 629.58,227.29 629.93,226.94 630.28,226.60 630.63,226.26 630.98,225.91 631.32,225.57 631.67,225.23 632.02,224.89 632.37,224.55 632.72,224.21 633.06,223.87 633.41,223.53 633.76,223.20 634.11,222.86 634.46,222.53 634.80,222.19 635.15,221.86 635.50,221.53 635.85,221.20 636.20,220.87 636.54,220.54 636.89,220.21 637.24,219.89 637.59,219.57 637.94,219.24 638.28,218.92 638.63,218.60 638.98,218.29 639.33,217.97 639.68,217.65 640.02,217.34 640.37,217.03 640.72,216.72 641.07,216.41 641.42,216.10 641.76,215.79 642.11,215.49 642.46,215.18 642.81,214.88 643.16,214.58 643.50,214.28 643.85,213.98 644.20,213.68 644.55,213.39 644.90,213.09 645.24,212.80 645.59,212.50 645.94,212.21 646.29,211.92 646.64,211.63 646.98,211.34 647.33,211.06 647.68,210.77 648.03,210.48 648.38,210.20 648.72,209.91 649.07,209.63 649.42,209.34 649.77,209.06 650.12,208.78 650.46,208.50 650.81,208.22 651.16,207.93 651.51,207.65 651.86,207.37 652.20,207.09 652.55,206.81 652.90,206.53 653.25,206.25 653.60,205.97 653.94,205.69 654.29,205.41 654.64,205.12 654.99,204.84 655.34,204.56 655.68,204.28 656.03,203.99 656.38,203.71 656.73,203.42 657.08,203.13 657.42,202.85 657.77,202.56 658.12,202.27 658.47,201.98 658.82,201.68 659.16,201.39 659.51,201.09 659.86,200.80 660.21,200.50 660.56,200.20 660.90,199.90 661.25,199.60 661.60,199.30 661.95,198.99 662.30,198.68 662.64,198.38 662.99,198.07 663.34,197.76 663.69,197.45 664.04,197.13 664.38,196.82 664.73,196.50 665.08,196.18 665.43,195.87 665.78,195.55 666.12,195.23 666.47,194.90 666.82,194.58 667.17,194.26 667.52,193.93 667.86,193.61 668.21,193.28 668.56,192.95 668.91,192.62 669.26,192.29 669.60,191.96 669.95,191.63 670.30,191.30 670.65,190.96 671.00,190.63 671.34,190.30 671.69,189.96 672.04,189.63 672.39,189.29 672.74,188.95 673.08,188.62 673.43,188.28 673.78,187.95 674.13,187.61 674.48,187.27 674.82,186.94 675.17,186.60 675.52,186.27 675.87,185.93 676.22,185.59 676.56,185.26 676.91,184.92 677.26,184.59 677.61,184.25 677.96,183.92 678.30,183.58 678.65,183.25 679.00,182.91 679.35,182.58 679.70,182.24 680.04,181.91 680.39,181.57 680.74,181.24 681.09,180.91 681.44,180.57 681.78,180.24 682.13,179.91 682.48,179.57 682.83,179.24 683.18,178.91 683.52,178.57 683.87,178.24 684.22,177.91 684.57,177.58 684.92,177.25 685.26,176.92 685.61,176.59 685.96,176.26 686.31,175.93 686.66,175.60 687.00,175.27 687.35,174.95 687.70,174.62 688.05,174.29 688.40,173.97 688.74,173.64 689.09,173.32 689.44,173.00 689.79,172.67 690.14,172.35 690.48,172.03 690.83,171.71 691.18,171.39 691.53,171.08 691.88,170.76 692.22,170.44 692.57,170.13 692.92,169.81 693.27,169.50 693.62,169.19 693.96,168.88 694.31,168.57 694.66,168.26 695.01,167.95 695.36,167.65 695.70,167.34 696.05,167.04 696.40,166.74 696.75,166.44 697.10,166.14 697.44,165.84 697.79,165.54 698.14,165.25 698.49,164.96 698.84,164.67 699.18,164.38 699.53,164.09 699.88,163.80 700.23,163.52 700.58,163.23 700.92,162.95 701.27,162.67 701.62,162.39 701.97,162.11 702.32,161.84 702.66,161.56 703.01,161.29 703.36,161.02 703.71,160.75 704.06,160.48 704.40,160.21 704.75,159.95 705.10,159.68 705.45,159.42 705.80,159.16 706.14,158.90 706.49,158.64 706.84,158.38 707.19,158.13 707.54,157.87 707.88,157.62 708.23,157.36 708.58,157.11 708.93,156.86 709.28,156.61 709.62,156.36 709.97,156.11 710.32,155.87 710.67,155.62 711.02,155.37 711.36,155.13 711.71,154.88 712.06,154.64 712.41,154.40 712.76,154.15 713.10,153.91 713.45,153.67 713.80,153.43 714.15,153.19 714.50,152.95 714.84,152.71 715.19,152.47 715.54,152.23 715.89,151.99 716.24,151.75 716.58,151.52 716.93,151.28 717.28,151.04 717.63,150.80 717.98,150.56 718.32,150.32 718.67,150.09 719.02,149.85 719.37,149.61 719.72,149.38 720.06,149.14 720.41,148.90 720.76,148.66 721.11,148.43 721.46,148.19 721.80,147.96 722.15,147.72 722.50,147.48 722.85,147.25 723.20,147.01 723.54,146.78 723.89,146.54 724.24,146.31 724.59,146.08 724.94,145.84 725.28,145.61 725.63,145.37 725.98,145.14 726.33,144.91 726.68,144.67 727.02,144.44 727.37,144.21 727.72,143.98 728.07,143.74 728.42,143.51 728.76,143.28 729.11,143.05 729.46,142.82 729.81,142.59 730.16,142.36 730.50,142.13 730.85,141.90 731.20,141.67 731.55,141.44 731.90,141.21 732.24,140.99 732.59,140.76 732.94,140.53 733.29,140.31 733.64,140.08 733.98,139.86 734.33,139.63 734.68,139.41 735.03,139.19 735.38,138.97 735.72,138.74 736.07,138.52 736.42,138.30 736.77,138.08 737.12,137.87 737.46,137.65 737.81,137.43 738.16,137.21 738.51,137.00 738.86,136.78 739.20,136.57 739.55,136.36 739.90,136.14 740.25,135.93 740.60,135.72 740.94,135.51 741.29,135.30 741.64,135.09 741.99,134.89 742.34,134.68 742.68,134.47 743.03,134.27 743.38,134.06 743.73,133.86 744.08,133.65 744.42,133.45 744.77,133.24 745.12,133.04 745.47,132.84 745.82,132.64 746.16,132.44 746.51,132.24 746.86,132.04 747.21,131.84 747.56,131.64 747.90,131.44 748.25,131.24 748.60,131.04 748.95,130.85 749.30,130.65 749.64,130.45 749.99,130.25 750.34,130.06 750.69,129.86 751.04,129.66 751.38,129.47 751.73,129.27 752.08,129.07 752.43,128.87 752.78,128.68 753.12,128.48 753.47,128.28 753.82,128.08 754.17,127.88 754.52,127.69 754.86,127.49 755.21,127.29 755.56,127.09 755.91,126.89 756.26,126.69 756.60,126.49 756.95,126.29 757.30,126.09 757.65,125.89 758.00,125.69 758.34,125.49 758.69,125.29 759.04,125.09 759.39,124.89 759.74,124.68 760.08,124.48 760.43,124.28 760.78,124.08 761.13,123.88 761.48,123.68 761.82,123.48 762.17,123.28 762.52,123.08 762.87,122.88 763.22,122.68 763.56,122.48 763.91,122.29 764.26,122.09 764.61,121.89 764.96,121.70 765.30,121.50 765.65,121.31 766.00,121.11 766.35,120.92 766.70,120.73 767.04,120.53 767.39,120.34 767.74,120.15 768.09,119.96 768.44,119.78 768.78,119.59 769.13,119.40 769.48,119.22 769.83,119.03 770.18,118.85 770.52,118.67 770.87,118.49 771.22,118.31 771.57,118.13 771.92,117.95 772.26,117.78 772.61,117.60 772.96,117.43 773.31,117.26 773.66,117.08 774.00,116.92 774.35,116.75 774.70,116.58 775.05,116.42 775.40,116.25 775.74,116.09 776.09,115.93 776.44,115.77 776.79,115.61 777.14,115.45 777.48,115.29 777.83,115.14 778.18,114.98 778.53,114.83 778.88,114.68 779.22,114.53 779.57,114.38 779.92,114.23 780.27,114.09 780.62,113.94 780.96,113.80 781.31,113.65 781.66,113.51 782.01,113.37 782.36,113.23 782.70,113.09 783.05,112.96 783.40,112.82 783.75,112.68 784.10,112.55 784.44,112.42 784.79,112.29 785.14,112.16 785.49,112.03 785.84,111.90 786.18,111.77 786.53,111.65 786.88,111.52 787.23,111.40 787.58,111.27 787.92,111.15 788.27,111.03 788.62,110.91 788.97,110.79 789.32,110.67 789.66,110.55 790.01,110.44 790.36,110.32 790.71,110.21 791.06,110.09 791.40,109.98 791.75,109.87 792.10,109.76 792.45,109.65 792.80,109.54 793.14,109.43 793.49,109.32 793.84,109.22 794.19,109.11 794.54,109.01 794.88,108.91 795.23,108.80 795.58,108.70 795.93,108.60 796.28,108.50 796.62,108.40 796.97,108.30 797.32,108.20 797.67,108.10 798.02,108.01 798.36,107.91 798.71,107.81 799.06,107.71 799.41,107.62 799.76,107.52 800.10,107.42 800.45,107.33 800.80,107.23 801.15,107.13 801.50,107.04 801.84,106.94 802.19,106.85 802.54,106.75 802.89,106.65 803.24,106.55 803.58,106.46 803.93,106.36 804.28,106.26 804.63,106.16 804.98,106.06 805.32,105.96 805.67,105.86 806.02,105.76 806.37,105.66 806.72,105.56 807.06,105.46 807.41,105.35 807.76,105.25 808.11,105.14 808.46,105.04 808.80,104.93 809.15,104.82 809.50,104.72 809.85,104.61 810.20,104.50 810.54,104.39 810.89,104.27 811.24,104.16 811.59,104.05 811.94,103.93 812.28,103.82 812.63,103.70 812.98,103.58 813.33,103.46 813.68,103.34 814.02,103.22 814.37,103.10 814.72,102.98 815.07,102.85 815.42,102.73 815.76,102.60 816.11,102.47 816.46,102.34 816.81,102.21 817.16,102.08 817.50,101.95 817.85,101.82 818.20,101.68 818.55,101.55 818.90,101.41 819.24,101.28 819.59,101.14 819.94,101.00 820.29,100.86 820.64,100.72 820.98,100.58 821.33,100.44 821.68,100.30 822.03,100.15 822.38,100.01 822.72,99.87 823.07,99.72 823.42,99.58 823.77,99.43 824.12,99.29 824.46,99.14 824.81,99.00 825.16,98.85 825.51,98.70 825.86,98.56 826.20,98.41 826.55,98.26 826.90,98.11 827.25,97.97 827.60,97.82 827.94,97.67 828.29,97.52 828.64,97.37 828.99,97.23 829.34,97.08 829.68,96.93 830.03,96.78 830.38,96.64 830.73,96.49 831.08,96.34 831.42,96.19 831.77,96.05 832.12,95.90 832.47,95.76 832.82,95.61 833.16,95.46 833.51,95.32 833.86,95.17 834.21,95.03 834.56,94.89 834.90,94.74 835.25,94.60 835.60,94.46 835.95,94.32 836.30,94.18 836.64,94.04 836.99,93.90 837.34,93.77 837.69,93.63 838.04,93.49 838.38,93.36 838.73,93.23 839.08,93.09 839.43,92.96 839.78,92.83 840.12,92.70 840.47,92.58 840.82,92.45 841.17,92.32 841.52,92.20 841.86,92.08 842.21,91.96 842.56,91.84 842.91,91.72 843.26,91.60 843.60,91.48 843.95,91.37 844.30,91.25 844.65,91.14 845.00,91.03 845.34,90.91 845.69,90.80 846.04,90.70 846.39,90.59 846.74,90.48 847.08,90.37 847.43,90.27 847.78,90.17 848.13,90.06 848.48,89.96 848.82,89.86 849.17,89.76 849.52,89.66 849.87,89.56 850.22,89.46 850.56,89.36 850.91,89.27 851.26,89.17 851.61,89.07 851.96,88.98 852.30,88.88 852.65,88.79 853.00,88.70 853.35,88.60 853.70,88.51 854.04,88.42 854.39,88.32 854.74,88.23 855.09,88.14 855.44,88.05 855.78,87.96 856.13,87.86 856.48,87.77 856.83,87.68 857.18,87.59 857.52,87.49 857.87,87.40 858.22,87.31 858.57,87.21 858.92,87.12 859.26,87.02 859.61,86.92 859.96,86.83 860.31,86.73 860.66,86.63 861.00,86.53 861.35,86.43 861.70,86.33 862.05,86.23 862.40,86.12 862.74,86.02 863.09,85.92 863.44,85.81 863.79,85.70 864.14,85.59 864.48,85.48 864.83,85.37 865.18,85.26 865.53,85.15 865.88,85.03 866.22,84.91 866.57,84.80 866.92,84.68 867.27,84.55 867.62,84.43 867.96,84.31 868.31,84.18 868.66,84.06 869.01,83.93 869.36,83.80 869.70,83.66 870.05,83.53 870.40,83.40 870.75,83.26 871.10,83.12 871.44,82.98 871.79,82.84 872.14,82.70 872.49,82.55 872.84,82.41 873.18,82.26 873.53,82.11 873.88,81.96 874.23,81.81 874.58,81.66 874.92,81.51 875.27,81.35 875.62,81.20 875.97,81.04 876.32,80.88 876.66,80.72 877.01,80.56 877.36,80.40 877.71,80.24 878.06,80.07 878.40,79.91 878.75,79.75 879.10,79.58 879.45,79.41 879.80,79.25 880.14,79.08 880.49,78.91 880.84,78.74 881.19,78.57 881.54,78.39 881.88,78.22 882.23,78.05 882.58,77.87 882.93,77.70 883.28,77.52 883.62,77.35 883.97,77.17 884.32,76.99 884.67,76.81 885.02,76.63 885.36,76.45 885.71,76.27 886.06,76.08 886.41,75.90 886.76,75.72 887.10,75.53 887.45,75.35 887.80,75.16 888.15,74.97 888.50,74.79 888.84,74.60 889.19,74.41 889.54,74.22 889.89,74.03 890.24,73.84 890.58,73.65 890.93,73.46 891.28,73.26 891.63,73.07 891.98,72.88 892.32,72.69 892.67,72.49 893.02,72.30 893.37,72.10 893.72,71.91 894.06,71.72 894.41,71.52 894.76,71.32 895.11,71.13 895.46,70.93 895.80,70.74 896.15,70.54 896.50,70.34 896.85,70.15 897.20,69.95 897.54,69.75 897.89,69.55 898.24,69.35 898.59,69.15 898.94,68.96 899.28,68.76 899.63,68.56 899.98,68.36 900.33,68.16 900.68,67.95 901.02,67.75 901.37,67.55 901.72,67.35 902.07,67.15 902.42,66.94 902.76,66.74 903.11,66.53 903.46,66.33 903.81,66.12 904.16,65.92 904.50,65.71 904.85,65.50 905.20,65.30 905.55,65.09 905.90,64.88 906.24,64.67 906.59,64.46 906.94,64.25 907.29,64.04 907.64,63.83 907.98,63.61 908.33,63.40 908.68,63.19 909.03,62.97 909.38,62.76 909.72,62.54 910.07,62.33 910.42,62.11 910.77,61.90 911.12,61.68 911.46,61.46 911.81,61.24 912.16,61.03 912.51,60.81 912.86,60.59 913.20,60.37 913.55,60.15 913.90,59.93 914.25,59.71 914.60,59.48 914.94,59.26 915.29,59.04 915.64,58.82 915.99,58.59 916.34,58.37 916.68,58.14 917.03,57.92 917.38,57.70 917.73,57.47 918.08,57.24 918.42,57.02 918.77,56.79 919.12,56.57 919.47,56.34 919.82,56.11 920.16,55.88 920.51,55.65 920.86,55.43 921.21,55.20 921.56,54.97 921.90,54.74 922.25,54.51 922.60,54.28 922.95,54.04 923.30,53.81 923.64,53.58 923.99,53.35 924.34,53.11 924.69,52.88 925.04,52.65 925.38,52.41 925.73,52.17 926.08,51.94 926.43,51.70 926.78,51.46 927.12,51.22 927.47,50.98 927.82,50.74 928.17,50.50 928.52,50.26 928.86,50.02 929.21,49.78 929.56,49.53 929.91,49.29 930.26,49.04 930.60,48.80 930.95,48.55 931.30,48.31 931.65,48.06 932.00,47.81 932.34,47.56 932.69,47.31 933.04,47.07 933.39,46.82 933.74,46.57 934.08,46.32 934.43,46.07 934.78,45.82 935.13,45.57 935.48,45.31 935.82,45.06 936.17,44.81 936.52,44.56 936.87,44.30 937.22,44.05 937.56,43.80 937.91,43.54 938.26,43.29 938.61,43.03 938.96,42.77 939.30,42.52 939.65,42.26 940.00,42.00"/>
  <text x="505.0" y="500" text-anchor="middle" font-family="Arial" font-size="14" fill="#1f2937">time_au [0, 10]</text>
  <text x="24" y="250.0" transform="rotate(-90 24 250.0)" text-anchor="middle" font-family="Arial" font-size="14" fill="#1f2937">dipole [-0.7526, -0.7526]</text>
</svg>