<?xml version="1.0" encoding="UTF-8"?>
<svg xmlns="http://www.w3.org/2000/svg" width="960" height="520" viewBox="0 0 960 520">
  <rect x="0" y="0" width="100%" height="100%" fill="#ffffff"/>
  <text x="70" y="24" font-family="Arial" font-size="18" fill="#1f2937">H2O TDDFT dipole response :: td_dipole</text>
  <line x1="70" y1="458" x2="940" y2="458" stroke="#5f6b7a" stroke-width="1.5"/>
  <line x1="70" y1="42" x2="70" y2="458" stroke="#5f6b7a" stroke-width="1.5"/>
  <polyline fill="none" stroke="#0b6cff" stroke-width="2" points="70.00,458.00 73.95,457.93 77.91,457.75 81.86,457.46 85.82,457.07 89.77,456.59 93.73,456.02 97.68,455.34 101.64,454.56 105.59,453.67 109.55,452.68 113.50,451.60 117.45,450.41 121.41,449.14 125.36,447.77 129.32,446.32 133.27,444.79 137.23,443.17 141.18,441.47 145.14,439.68 149.09,437.82 153.05,435.87 157.00,433.85 160.95,431.75 164.91,429.58 168.86,427.34 172.82,425.04 176.77,422.66 180.73,420.23 184.68,417.73 188.64,415.17 192.59,412.56 196.55,409.88 200.50,407.15 204.45,404.36 208.41,401.52 212.36,398.63 216.32,395.70 220.27,392.71 224.23,389.68 228.18,386.61 232.14,383.49 236.09,380.33 240.05,377.13 244.00,373.88 247.95,370.60 251.91,367.28 255.86,363.92 259.82,360.52 263.77,357.09 267.73,353.62 271.68,350.11 275.64,346.57 279.59,343.00 283.55,339.39 287.50,335.74 291.45,332.05 295.41,328.33 299.36,324.57 303.32,320.78 307.27,316.94 311.23,313.07 315.18,309.16 319.14,305.21 323.09,301.23 327.05,297.20 331.00,293.12 334.95,289.01 338.91,284.84 342.86,280.63 346.82,276.38 350.77,272.08 354.73,267.73 358.68,263.33 362.64,258.88 366.59,254.38 370.55,249.83 374.50,245.22 378.45,240.55 382.41,235.83 386.36,231.05 390.32,226.21 394.27,221.31 398.23,216.35 402.18,211.33 406.14,206.25 410.09,201.11 414.05,195.92 418.00,190.66 421.95,185.36 425.91,180.01 429.86,174.62 433.82,169.20 437.77,163.77 441.73,158.32 445.68,152.88 449.64,147.45 453.59,142.05 457.55,136.70 461.50,131.40 465.45,126.17 469.41,121.04 473.36,116.00 477.32,111.08 481.27,106.29 485.23,101.64 489.18,97.13 493.14,92.79 497.09,88.61 501.05,84.60 505.00,80.77 508.95,77.13 512.91,73.67 516.86,70.40 520.82,67.32 524.77,64.43 528.73,61.74 532.68,59.23 536.64,56.90 540.59,54.77 544.55,52.81 548.50,51.03 552.45,49.42 556.41,47.98 560.36,46.71 564.32,45.60 568.27,44.64 572.23,43.84 576.18,43.20 580.14,42.69 584.09,42.33 588.05,42.10 592.00,42.00 595.95,42.03 599.91,42.19 603.86,42.47 607.82,42.86 611.77,43.37 615.73,43.99 619.68,44.72 623.64,45.55 627.59,46.48 631.55,47.51 635.50,48.63 639.45,49.84 643.41,51.13 647.36,52.50 651.32,53.95 655.27,55.48 659.23,57.07 663.18,58.73 667.14,60.45 671.09,62.22 675.05,64.05 679.00,65.92 682.95,67.84 686.91,69.79 690.86,71.79 694.82,73.82 698.77,75.88 702.73,77.97 706.68,80.09 710.64,82.22 714.59,84.38 718.55,86.56 722.50,88.76 726.45,90.98 730.41,93.21 734.36,95.47 738.32,97.75 742.27,100.04 746.23,102.35 750.18,104.67 754.14,107.01 758.09,109.37 762.05,111.75 766.00,114.14 769.95,116.56 773.91,118.99 777.86,121.43 781.82,123.89 785.77,126.36 789.73,128.85 793.68,131.35 797.64,133.86 801.59,136.38 805.55,138.90 809.50,141.44 813.45,143.97 817.41,146.51 821.36,149.05 825.32,151.59 829.27,154.13 833.23,156.66 837.18,159.19 841.14,161.70 845.09,164.21 849.05,166.70 853.00,169.17 856.95,171.63 860.91,174.08 864.86,176.50 868.82,178.90 872.77,181.27 876.73,183.62 880.68,185.95 884.64,188.24 888.59,190.51 892.55,192.74 896.50,194.95 900.45,197.11 904.41,199.25 908.36,201.34 912.32,203.40 916.27,205.42 920.23,207.40 924.18,209.33 928.14,211.22 932.09,213.06 936.05,214.86 940.00,216.60"/>
  <text x="505.0" y="500" text-anchor="middle" font-family="Arial" font-size="14" fill="#1f2937">time_au [0, 8.8]</text>
  <text x="24" y="250.0" transform="rotate(-90 24 250.0)" text-anchor="middle" font-family="Arial" font-size="14" fill="#1f2937">dipole [-0.2038, 31.92]</text>
</svg>